<svg width="24" height="26" viewBox="0 0 24 26" fill="none" xmlns="http://www.w3.org/2000/svg">
<path d="M21.1834 4.59377L13.7455 0.524908C13.1182 0.179666 12.4136 -0.000926323 11.6976 3.57301e-06C10.9816 0.000933469 10.2775 0.183355 9.65106 0.530225L2.2014 4.63206C1.53451 4.99929 0.978435 5.53881 0.591209 6.19429C0.203982 6.84977 -0.000191694 7.59717 0 8.35849V17.0779C0 18.6381 0.851845 20.0706 2.22267 20.8161L9.66276 24.8583C10.2875 25.1986 10.9877 25.3764 11.6991 25.3752C12.4104 25.3741 13.1101 25.1942 13.7338 24.852L21.1845 20.7778C21.8542 20.4113 22.413 19.8714 22.8022 19.2146C23.1914 18.5578 23.3967 17.8084 23.3965 17.045V8.32552C23.3969 7.56206 23.1915 6.81261 22.8021 6.15594C22.4126 5.49928 21.8535 4.95965 21.1834 4.59377ZM17.913 14.9884C17.3703 16.1891 15.908 17.6514 13.7146 17.6514C11.5212 17.6514 10.0589 17.6514 7.49991 16.5546C4.94092 15.4579 4.38685 11.6983 4.75242 11.3327C4.96578 11.1193 6.58027 11.3327 6.58027 10.9671C6.58027 10.9671 6.94584 8.19343 7.31141 8.04255C7.31141 8.04255 8.96219 7.78095 11.1556 7.78095C14.2573 7.67698 17.875 9.90948 18.2785 11.3327C18.6821 12.7559 18.4556 13.7877 17.913 14.9884Z" fill="white"/>
</svg>
