<svg width="223" height="77" viewBox="0 0 223 77" fill="none" xmlns="http://www.w3.org/2000/svg">
<path d="M94.188 36.328C94.188 33.832 94.728 31.612 95.808 29.668C96.888 27.7 98.388 26.176 100.308 25.096C102.252 23.992 104.448 23.44 106.896 23.44C109.896 23.44 112.464 24.232 114.6 25.816C116.736 27.4 118.164 29.56 118.884 32.296H112.116C111.612 31.24 110.892 30.436 109.956 29.884C109.044 29.332 108 29.056 106.824 29.056C104.928 29.056 103.392 29.716 102.216 31.036C101.04 32.356 100.452 34.12 100.452 36.328C100.452 38.536 101.04 40.3 102.216 41.62C103.392 42.94 104.928 43.6 106.824 43.6C108 43.6 109.044 43.324 109.956 42.772C110.892 42.22 111.612 41.416 112.116 40.36H118.884C118.164 43.096 116.736 45.256 114.6 46.84C112.464 48.4 109.896 49.18 106.896 49.18C104.448 49.18 102.252 48.64 100.308 47.56C98.388 46.456 96.888 44.932 95.808 42.988C94.728 41.044 94.188 38.824 94.188 36.328Z" fill="#F77E58"/>
<path d="M121.43 38.92C121.43 36.856 121.814 35.044 122.582 33.484C123.374 31.924 124.442 30.724 125.786 29.884C127.13 29.044 128.63 28.624 130.286 28.624C131.702 28.624 132.938 28.912 133.994 29.488C135.074 30.064 135.902 30.82 136.478 31.756V28.912H142.634V49H136.478V46.156C135.878 47.092 135.038 47.848 133.958 48.424C132.902 49 131.666 49.288 130.25 49.288C128.618 49.288 127.13 48.868 125.786 48.028C124.442 47.164 123.374 45.952 122.582 44.392C121.814 42.808 121.43 40.984 121.43 38.92ZM136.478 38.956C136.478 37.42 136.046 36.208 135.182 35.32C134.342 34.432 133.31 33.988 132.086 33.988C130.862 33.988 129.818 34.432 128.954 35.32C128.114 36.184 127.694 37.384 127.694 38.92C127.694 40.456 128.114 41.68 128.954 42.592C129.818 43.48 130.862 43.924 132.086 43.924C133.31 43.924 134.342 43.48 135.182 42.592C136.046 41.704 136.478 40.492 136.478 38.956ZM153.243 32.26C153.963 31.156 154.863 30.292 155.943 29.668C157.023 29.02 158.223 28.696 159.543 28.696V35.212H157.851C156.315 35.212 155.163 35.548 154.395 36.22C153.627 36.868 153.243 38.02 153.243 39.676V49H147.087V28.912H153.243V32.26ZM168.642 32.26C169.362 31.156 170.262 30.292 171.342 29.668C172.422 29.02 173.622 28.696 174.942 28.696V35.212H173.25C171.714 35.212 170.562 35.548 169.794 36.22C169.026 36.868 168.642 38.02 168.642 39.676V49H162.486V28.912H168.642V32.26ZM187.028 49.288C185.06 49.288 183.284 48.868 181.7 48.028C180.14 47.188 178.904 45.988 177.992 44.428C177.104 42.868 176.66 41.044 176.66 38.956C176.66 36.892 177.116 35.08 178.028 33.52C178.94 31.936 180.188 30.724 181.772 29.884C183.356 29.044 185.132 28.624 187.1 28.624C189.068 28.624 190.844 29.044 192.428 29.884C194.012 30.724 195.26 31.936 196.172 33.52C197.084 35.08 197.54 36.892 197.54 38.956C197.54 41.02 197.072 42.844 196.136 44.428C195.224 45.988 193.964 47.188 192.356 48.028C190.772 48.868 188.996 49.288 187.028 49.288ZM187.028 43.96C188.204 43.96 189.2 43.528 190.016 42.664C190.856 41.8 191.276 40.564 191.276 38.956C191.276 37.348 190.868 36.112 190.052 35.248C189.26 34.384 188.276 33.952 187.1 33.952C185.9 33.952 184.904 34.384 184.112 35.248C183.32 36.088 182.924 37.324 182.924 38.956C182.924 40.564 183.308 41.8 184.076 42.664C184.868 43.528 185.852 43.96 187.028 43.96ZM220.642 28.912V49H214.486V46.264C213.862 47.152 213.01 47.872 211.93 48.424C210.874 48.952 209.698 49.216 208.402 49.216C206.866 49.216 205.51 48.88 204.334 48.208C203.158 47.512 202.246 46.516 201.598 45.22C200.95 43.924 200.626 42.4 200.626 40.648V28.912H206.746V39.82C206.746 41.164 207.094 42.208 207.79 42.952C208.486 43.696 209.422 44.068 210.598 44.068C211.798 44.068 212.746 43.696 213.442 42.952C214.138 42.208 214.486 41.164 214.486 39.82V28.912H220.642Z" fill="#333333"/>
<path d="M73.7521 61.6181C86.4852 44.1328 81.6829 37.3828 72.9395 35.0255C69.412 34.2859 65.4586 35.2365 63.0545 38.5166C60.7641 41.1519 61.8171 45.0816 56.4178 50.4033C52.7056 53.312 50.8329 53.6893 48.6332 54.3471C46.5866 54.9591 44.7178 56.1028 43.2782 57.6809C41.7538 59.352 40.9138 61.0987 40.9399 63.7731C40.9728 67.1558 42.5599 70.4853 45.2892 72.4839C49.5068 75.5724 54.3001 74.9073 61.8222 71.194C66.6865 68.7927 67.9637 67.6041 71.0206 64.6941C72.0149 63.7475 72.9439 62.7278 73.7521 61.6181Z" fill="#006884"/>
<path d="M57.8768 26.2713C62.8164 31.3039 66.059 33.9272 71.9382 31.0482C74.5884 29.7504 76.7975 27.5355 77.8256 24.7694C79.6663 19.8171 77.3492 16.3802 71.8936 11.2061C66.4177 5.84533 62.7875 4.27923 58.2203 5.93704C54.9676 7.11772 52.2771 9.7819 51.294 13.0997C49.9934 17.4886 51.9523 20.997 57.8768 26.2713Z" fill="#68DBBB"/>
<path d="M9.67296 48.0065C15 65.6803 26.5847 72.2102 34.9302 65.6803C39.8895 60.095 37.6288 52.9016 33.5497 50.0311C27.3989 43.7523 28.4333 35.8269 29.4309 32.8036C32.657 23.8469 40.3057 22.1277 42.9612 20.9208C45.7299 19.5183 49.7193 13.6093 45.6696 6.32308C38.7541 -4.04486 20.5585 7.10614 12.9074 20.5513C8.07086 29.3575 7.67975 40.5677 9.67296 48.0065Z" fill="#F77E58"/>
</svg>
