<svg width="88" height="77" viewBox="0 0 88 77" fill="none" xmlns="http://www.w3.org/2000/svg">
<path d="M73.7521 61.6181C86.4852 44.1328 81.6829 37.3828 72.9395 35.0255C69.412 34.2859 65.4586 35.2365 63.0545 38.5166C60.7641 41.1519 61.8171 45.0816 56.4178 50.4033C52.7056 53.312 50.8329 53.6893 48.6332 54.3471C46.5866 54.9591 44.7178 56.1028 43.2782 57.6809C41.7538 59.352 40.9138 61.0987 40.9399 63.7731C40.9728 67.1558 42.5599 70.4853 45.2892 72.4839C49.5068 75.5724 54.3001 74.9073 61.8222 71.194C66.6865 68.7927 67.9637 67.6041 71.0206 64.6941C72.0149 63.7475 72.9439 62.7278 73.7521 61.6181Z" fill="#006884"/>
<path d="M57.8768 26.2713C62.8164 31.3039 66.059 33.9272 71.9382 31.0482C74.5884 29.7504 76.7975 27.5355 77.8256 24.7694C79.6663 19.8171 77.3492 16.3802 71.8936 11.2061C66.4177 5.84533 62.7875 4.27923 58.2203 5.93704C54.9676 7.11772 52.2771 9.7819 51.294 13.0997C49.9934 17.4886 51.9523 20.997 57.8768 26.2713Z" fill="#68DBBB"/>
<path d="M9.67296 48.0065C15 65.6803 26.5847 72.2102 34.9302 65.6803C39.8895 60.095 37.6288 52.9016 33.5497 50.0311C27.3989 43.7523 28.4333 35.8269 29.4309 32.8036C32.657 23.8469 40.3057 22.1277 42.9612 20.9208C45.7299 19.5183 49.7193 13.6093 45.6696 6.32308C38.7541 -4.04486 20.5585 7.10614 12.9074 20.5513C8.07086 29.3575 7.67975 40.5677 9.67296 48.0065Z" fill="#F77E58"/>
</svg>
